# xmcd
#
# Track frame offsets: 
#        150
#        15697
#        30992
#        48255
#        68065
#        85327
#        101020
#        120825
#        134917
#        150982
#        168297
#        185059
#
# Disc length: 2726 seconds
#
# Revision: 4
# Processed by: cddbd v1.5.2PL0 Copyright (c) Steve Scherf et al.
# Submitted via: ExactAudioCopy v1.3
#
DISCID=920aa40c
DTITLE=왁스（Wax） - 내가 당신을 사랑하는 이유（Wax Best Day and Night）
DYEAR=2004
DGENRE=K-Pop
TTITLE0=오빠
TTITLE1=머니
TTITLE2=아줌마
TTITLE3=졸려
TTITLE4=지하철을 타고
TTITLE5=노부사（노래를 부르는 사람들）
TTITLE6=황혼의 문턱
TTITLE7=HEY GIRL
TTITLE8=좋은걸 어떡해
TTITLE9=내게 남은 사랑을 다 줄께
TTITLE10=기억 안 나
TTITLE11=그 날
EXTD=YEAR: 2004
EXTT0=
EXTT1=
EXTT2=
EXTT3=
EXTT4=
EXTT5=
EXTT6=
EXTT7=
EXTT8=
EXTT9=
EXTT10=
EXTT11=
PLAYORDER=
